<svg width="32" height="32" viewBox="0 0 32 32" fill="none" xmlns="http://www.w3.org/2000/svg">
<path d="M17.2336 4.00148C18.1092 3.99812 18.9849 4.00692 19.8603 4.02788L20.0931 4.03628C20.3619 4.04587 20.6271 4.05787 20.9475 4.07227C22.2242 4.13227 23.0954 4.33387 23.8598 4.63026C24.6517 4.93504 25.3189 5.34783 25.9861 6.01501C26.5961 6.61452 27.0683 7.3397 27.3697 8.14014C27.666 8.90451 27.8676 9.77688 27.9276 11.0536C27.942 11.3728 27.954 11.6392 27.9636 11.908L27.9708 12.1408C27.9922 13.0158 28.0014 13.8911 27.9984 14.7663L27.9996 15.6615V17.2334C28.0026 18.1091 27.9934 18.9847 27.972 19.8601L27.9648 20.0929C27.9552 20.3617 27.9432 20.6269 27.9288 20.9473C27.8688 22.2241 27.6648 23.0952 27.3697 23.8596C27.0692 24.6609 26.597 25.3867 25.9861 25.9859C25.3861 26.5959 24.6605 27.068 23.8598 27.3695C23.0954 27.6659 22.2242 27.8675 20.9475 27.9275C20.6271 27.9419 20.3619 27.9539 20.0931 27.9635L19.8603 27.9707C18.9849 27.992 18.1093 28.0012 17.2336 27.9983L16.3384 27.9995H14.7677C13.892 28.0024 13.0164 27.9932 12.141 27.9719L11.9082 27.9647C11.6233 27.9543 11.3385 27.9423 11.0538 27.9287C9.77705 27.8687 8.90588 27.6647 8.14031 27.3695C7.33956 27.0687 6.61424 26.5965 6.01518 25.9859C5.40445 25.3863 4.93189 24.6606 4.63043 23.8596C4.33404 23.0952 4.13244 22.2241 4.07245 20.9473C4.05908 20.6626 4.04708 20.3778 4.03645 20.0929L4.03045 19.8601C4.00832 18.9847 3.99832 18.1091 4.00045 17.2334V14.7663C3.9971 13.8911 4.0059 13.0158 4.02685 12.1408L4.03525 11.908C4.04485 11.6392 4.05685 11.3728 4.07125 11.0536C4.13124 9.77568 4.33284 8.90571 4.62923 8.14014C4.93086 7.33931 5.40436 6.61432 6.01638 6.01621C6.61503 5.40513 7.33989 4.93213 8.14031 4.63026C8.90588 4.33387 9.77585 4.13227 11.0538 4.07227L11.9082 4.03628L12.141 4.03028C13.016 4.00816 13.8912 3.99816 14.7665 4.00028L17.2336 4.00148ZM16 10.0013C15.2051 9.99003 14.4158 10.1369 13.6781 10.4333C12.9404 10.7298 12.2689 11.1699 11.7028 11.7281C11.1367 12.2863 10.6871 12.9514 10.3803 13.6849C10.0734 14.4183 9.9154 15.2054 9.9154 16.0005C9.9154 16.7955 10.0734 17.5826 10.3803 18.3161C10.6871 19.0495 11.1367 19.7147 11.7028 20.2729C12.2689 20.831 12.9404 21.2712 13.6781 21.5676C14.4158 21.864 15.2051 22.0109 16 21.9997C17.5913 21.9997 19.1174 21.3675 20.2425 20.2424C21.3677 19.1172 21.9998 17.5911 21.9998 15.9999C21.9998 14.4086 21.3677 12.8826 20.2425 11.7574C19.1174 10.6322 17.5913 10.0013 16 10.0013ZM16 12.4012C16.4782 12.3924 16.9534 12.4789 17.3977 12.6558C17.8421 12.8327 18.2468 13.0964 18.5881 13.4314C18.9294 13.7664 19.2005 14.1661 19.3857 14.6071C19.5708 15.0481 19.6662 15.5216 19.6662 15.9999C19.6663 16.4781 19.5711 16.9516 19.3861 17.3927C19.2012 17.8337 18.9302 18.2335 18.5889 18.5687C18.2477 18.9038 17.8432 19.1676 17.3989 19.3446C16.9546 19.5217 16.4794 19.6084 16.0012 19.5997C15.0465 19.5997 14.1308 19.2205 13.4557 18.5454C12.7806 17.8703 12.4014 16.9546 12.4014 15.9999C12.4014 15.0451 12.7806 14.1295 13.4557 13.4544C14.1308 12.7793 15.0465 12.4 16.0012 12.4L16 12.4012ZM22.2998 8.20133C21.9127 8.21683 21.5466 8.38151 21.2782 8.66088C21.0098 8.94026 20.8599 9.31266 20.8599 9.70008C20.8599 10.0875 21.0098 10.4599 21.2782 10.7393C21.5466 11.0187 21.9127 11.1833 22.2998 11.1988C22.6976 11.1988 23.0792 11.0408 23.3605 10.7595C23.6417 10.4782 23.7998 10.0967 23.7998 9.69888C23.7998 9.30107 23.6417 8.91955 23.3605 8.63826C23.0792 8.35696 22.6976 8.19893 22.2998 8.19893V8.20133Z" fill="black"/>
</svg>
