<svg width="32" height="32" viewBox="0 0 32 32" fill="none" xmlns="http://www.w3.org/2000/svg">
<path d="M17.5421 1.00185C18.6366 0.997645 19.7312 1.00865 20.8254 1.03484L21.1164 1.04534C21.4524 1.05734 21.7839 1.07234 22.1844 1.09034C23.7803 1.16534 24.8693 1.41733 25.8248 1.78782C26.8147 2.16881 27.6487 2.68479 28.4827 3.51876C29.2452 4.26814 29.8354 5.17462 30.2121 6.17517C30.5826 7.13064 30.8346 8.2211 30.9096 9.81705C30.9276 10.216 30.9426 10.549 30.9546 10.885L30.9636 11.176C30.9903 12.2698 31.0018 13.3638 30.9981 14.4579L30.9996 15.5769V17.5418C31.0033 18.6364 30.9918 19.7309 30.9651 20.8252L30.9561 21.1162C30.9441 21.4522 30.9291 21.7836 30.9111 22.1841C30.8361 23.7801 30.5811 24.869 30.2121 25.8245C29.8366 26.8261 29.2463 27.7333 28.4827 28.4824C27.7327 29.2449 26.8257 29.835 25.8248 30.2119C24.8693 30.5823 23.7803 30.8343 22.1844 30.9093C21.7839 30.9273 21.4524 30.9423 21.1164 30.9543L20.8254 30.9633C19.7312 30.99 18.6366 31.0015 17.5421 30.9978L16.4231 30.9993H14.4597C13.3651 31.003 12.2705 30.9915 11.1763 30.9648L10.8853 30.9558C10.5292 30.9429 10.1732 30.9279 9.81732 30.9108C8.22137 30.8358 7.13241 30.5808 6.17544 30.2119C5.1745 29.8359 4.26787 29.2456 3.51904 28.4824C2.75563 27.7329 2.16492 26.8258 1.78809 25.8245C1.41761 24.869 1.16562 23.7801 1.09062 22.1841C1.07391 21.8282 1.05891 21.4722 1.04562 21.1162L1.03812 20.8252C1.01047 19.7309 0.997966 18.6364 1.00062 17.5418V14.4579C0.996435 13.3638 1.00744 12.2698 1.03362 11.176L1.04412 10.885C1.05612 10.549 1.07112 10.216 1.08912 9.81705C1.16412 8.2196 1.41611 7.13214 1.78659 6.17517C2.16364 5.17413 2.75551 4.2679 3.52054 3.52026C4.26885 2.75641 5.17492 2.16517 6.17544 1.78782C7.13241 1.41733 8.21987 1.16534 9.81732 1.09034L10.8853 1.04534L11.1763 1.03784C12.27 1.0102 13.3641 0.997704 14.4582 1.00035L17.5421 1.00185ZM16.0001 8.50159C15.0064 8.48754 14.0198 8.67112 13.0977 9.04167C12.1755 9.41223 11.3362 9.96236 10.6286 10.6601C9.92088 11.3578 9.35894 12.1893 8.97538 13.1061C8.59182 14.0229 8.39431 15.0068 8.39431 16.0006C8.39431 16.9944 8.59182 17.9783 8.97538 18.8951C9.35894 19.8119 9.92088 20.6433 10.6286 21.3411C11.3362 22.0388 12.1755 22.5889 13.0977 22.9595C14.0198 23.3301 15.0064 23.5136 16.0001 23.4996C17.9892 23.4996 19.8968 22.7094 21.3032 21.303C22.7097 19.8965 23.4999 17.9889 23.4999 15.9998C23.4999 14.0108 22.7097 12.1032 21.3032 10.6967C19.8968 9.29024 17.9892 8.50159 16.0001 8.50159ZM16.0001 11.5015C16.5978 11.4905 17.1918 11.5987 17.7472 11.8198C18.3027 12.0409 18.8085 12.3705 19.2352 12.7893C19.6618 13.2081 20.0007 13.7077 20.2321 14.2589C20.4635 14.8102 20.5828 15.402 20.5829 15.9998C20.583 16.5977 20.4639 17.1895 20.2327 17.7409C20.0015 18.2922 19.6627 18.7919 19.2362 19.2108C18.8097 19.6298 18.304 19.9595 17.7486 20.1808C17.1933 20.4021 16.5994 20.5105 16.0016 20.4997C14.8082 20.4997 13.6636 20.0256 12.8197 19.1817C11.9759 18.3378 11.5018 17.1933 11.5018 15.9998C11.5018 14.8064 11.9759 13.6618 12.8197 12.818C13.6636 11.9741 14.8082 11.5 16.0016 11.5L16.0001 11.5015ZM23.8748 6.25167C23.3909 6.27103 22.9333 6.47689 22.5978 6.8261C22.2623 7.17532 22.0749 7.64082 22.0749 8.1251C22.0749 8.60939 22.2623 9.07488 22.5978 9.4241C22.9333 9.77332 23.3909 9.97917 23.8748 9.99854C24.3721 9.99854 24.849 9.801 25.2006 9.44938C25.5522 9.09776 25.7498 8.62087 25.7498 8.1236C25.7498 7.62634 25.5522 7.14944 25.2006 6.79782C24.849 6.4462 24.3721 6.24867 23.8748 6.24867V6.25167Z" fill="white"/>
</svg>
