<svg width="32" height="32" viewBox="0 0 32 32" fill="none" xmlns="http://www.w3.org/2000/svg">
<path d="M1 3.14875C1 1.96188 1.98625 1 3.20312 1H28.7969C30.0138 1 31 1.96188 31 3.14875V28.8512C31 30.0381 30.0138 31 28.7969 31H3.20312C1.98625 31 1 30.0381 1 28.8512V3.14875ZM10.2681 26.1138V12.5669H5.76625V26.1138H10.2681ZM8.01813 10.7163C9.5875 10.7163 10.5644 9.6775 10.5644 8.37625C10.5363 7.04688 9.58938 6.03625 8.04813 6.03625C6.50688 6.03625 5.5 7.04875 5.5 8.37625C5.5 9.6775 6.47687 10.7163 7.98812 10.7163H8.01813ZM17.2206 26.1138V18.5481C17.2206 18.1431 17.2506 17.7381 17.3706 17.4494C17.695 16.6412 18.4356 15.8031 19.6806 15.8031C21.31 15.8031 21.9606 17.0444 21.9606 18.8669V26.1138H26.4625V18.3438C26.4625 14.1812 24.2425 12.2463 21.28 12.2463C18.8913 12.2463 17.8206 13.5588 17.2206 14.4831V14.53H17.1906C17.2006 14.5143 17.2106 14.4987 17.2206 14.4831V12.5669H12.7206C12.7769 13.8381 12.7206 26.1138 12.7206 26.1138H17.2206Z" fill="white"/>
</svg>
