<?xml version="1.0" standalone="no"?>
<!DOCTYPE svg PUBLIC "-//W3C//DTD SVG 20010904//EN"
 "http://www.w3.org/TR/2001/REC-SVG-20010904/DTD/svg10.dtd">
<svg version="1.0" xmlns="http://www.w3.org/2000/svg"
 width="3000.000000pt" height="820.000000pt" viewBox="0 0 3000.000000 820.000000"
 preserveAspectRatio="xMidYMid meet">

<g transform="translate(0.000000,820.000000) scale(0.100000,-0.100000)"
fill="#000000" stroke="none">
<path d="M4105 7050 c-219 -17 -400 -52 -605 -116 -313 -97 -619 -256 -855
-443 -94 -74 -271 -247 -355 -346 -137 -162 -276 -408 -351 -620 -30 -87 -75
-258 -84 -320 -3 -16 -11 -77 -19 -135 -11 -74 -14 -158 -11 -282 3 -104 0
-189 -5 -204 -6 -14 -13 -46 -16 -72 -3 -25 -18 -80 -35 -122 -37 -96 -37
-130 2 -198 19 -33 33 -75 36 -107 5 -50 4 -52 -24 -64 -143 -59 -224 -366
-203 -761 15 -279 33 -423 76 -605 7 -33 14 -68 14 -77 0 -28 -36 -22 -59 9
-13 18 -20 23 -21 13 0 -22 78 -138 106 -157 14 -8 47 -62 78 -127 30 -61 77
-142 106 -179 54 -71 153 -153 199 -164 14 -3 35 -10 46 -16 28 -14 86 -14
205 0 152 19 162 21 170 33 4 6 63 17 131 26 197 23 225 31 254 68 l24 32 -30
94 c-75 239 -108 518 -90 762 12 164 42 349 77 486 30 117 30 126 -6 247 -65
216 -158 358 -244 372 -22 4 -44 6 -47 6 -18 -5 -180 -15 -274 -17 -93 -3
-111 -6 -113 -20 -2 -9 4 -19 12 -22 18 -7 20 -61 9 -201 -4 -55 -10 -83 -18
-83 -19 0 -25 -60 -24 -250 0 -209 10 -318 28 -330 9 -5 20 -61 32 -156 44
-351 103 -597 195 -822 69 -171 71 -176 53 -170 -8 2 -41 58 -74 124 l-60 119
-55 -7 c-47 -7 -173 -19 -311 -30 l-37 -3 20 -40 c11 -22 38 -65 61 -95 38
-52 38 -53 8 -25 -73 68 -167 252 -216 424 -30 106 -68 301 -86 441 -18 137
-18 595 -1 755 24 212 98 351 200 371 25 5 36 19 73 91 37 73 44 93 43 142 -2
66 -69 342 -87 353 -9 5 -12 71 -12 255 0 222 3 260 24 363 29 144 77 292 132
411 38 82 44 89 56 73 11 -15 11 -19 -2 -27 -9 -4 -13 -13 -10 -18 4 -5 10 -7
15 -4 4 3 10 -4 13 -15 3 -10 0 -21 -7 -24 -7 -3 -6 -8 4 -15 12 -8 11 -16 -8
-51 -34 -65 -27 -59 34 26 73 102 175 221 263 308 56 56 67 72 56 80 -17 14
-42 111 -37 149 8 66 313 288 567 412 400 196 870 296 1324 282 297 -9 547
-54 840 -153 661 -222 1167 -673 1334 -1189 73 -224 88 -335 87 -624 0 -191
-3 -236 -15 -245 -21 -16 -85 -281 -85 -352 0 -50 7 -71 43 -138 36 -68 47
-80 81 -91 50 -18 88 -54 125 -125 42 -78 57 -149 72 -326 15 -194 7 -600 -16
-744 -60 -386 -142 -612 -283 -788 -19 -23 -37 -40 -40 -38 -2 3 11 24 31 48
35 44 110 172 89 152 -9 -7 -55 -6 -155 3 -78 8 -162 15 -187 16 -25 1 -48 6
-52 12 -9 13 -7 16 -70 -115 -30 -63 -62 -121 -71 -129 -27 -21 -21 0 27 112
104 241 161 465 211 834 14 101 25 188 25 194 0 5 4 8 9 5 19 -12 24 39 29
292 4 253 3 264 -16 285 -17 19 -21 42 -27 155 -6 117 -5 132 9 132 10 0 16 9
16 23 0 22 -3 22 -133 26 -72 2 -178 4 -234 5 l-102 1 -44 -43 c-70 -69 -146
-241 -197 -448 -12 -48 -17 -54 -60 -73 -49 -22 -115 -28 -125 -11 -8 13 -126
1 -145 -16 -8 -7 -27 -15 -42 -19 -15 -4 -32 -13 -39 -21 -6 -8 -21 -14 -33
-14 -11 0 -43 -18 -71 -40 -87 -69 -137 -84 -258 -72 -49 4 -90 5 -93 1 -9
-15 28 -30 68 -28 24 1 63 -1 88 -5 54 -9 139 11 173 39 53 45 88 65 110 65
14 0 30 7 37 15 7 8 19 15 27 15 8 0 27 9 41 21 15 11 35 18 47 15 11 -3 36
-1 55 3 24 5 45 3 68 -8 30 -14 37 -13 95 6 l62 21 12 -46 c45 -173 73 -549
54 -742 -14 -151 -43 -320 -54 -320 -5 0 -6 11 -3 25 5 19 2 25 -9 25 -12 0
-15 6 -10 19 3 11 1 22 -5 26 -5 3 -10 23 -10 45 0 25 -5 40 -16 44 -10 4 -15
17 -13 38 5 72 0 88 -24 88 -15 0 -26 9 -35 30 -8 17 -21 30 -32 30 -11 0 -20
10 -24 26 -5 20 -12 25 -26 21 -13 -3 -21 1 -26 15 -7 24 2 36 18 20 16 -16
38 -15 38 2 0 7 -9 16 -21 19 -12 3 -18 10 -14 16 4 7 -4 10 -19 9 -15 -1 -26
-6 -26 -10 0 -4 -8 -8 -19 -8 -21 0 -34 43 -19 58 6 6 -1 12 -18 16 -15 4 -34
15 -41 24 -12 16 -14 16 -24 0 -12 -21 -65 -24 -72 -5 -3 9 -7 9 -20 -1 -20
-17 -37 -8 -37 19 0 18 -2 19 -15 5 -8 -8 -15 -26 -15 -40 0 -24 -3 -26 -46
-26 -44 0 -45 -1 -42 -30 2 -21 -5 -37 -26 -59 -18 -19 -29 -41 -30 -62 -1
-18 -8 -35 -15 -37 -21 -7 -51 -40 -51 -57 0 -8 9 -15 19 -15 14 0 18 -5 14
-20 -3 -13 -14 -20 -29 -20 -31 0 -39 -16 -11 -24 20 -6 18 -9 -21 -27 -42
-18 -55 -48 -18 -41 10 2 16 -4 16 -16 0 -13 -6 -19 -17 -18 -10 0 -21 -10
-27 -26 -11 -30 0 -51 14 -28 5 8 13 11 17 6 4 -5 3 -11 -4 -13 -6 -2 -21 -13
-34 -24 -12 -10 -26 -19 -32 -19 -5 0 -7 -9 -4 -20 3 -11 1 -18 -4 -14 -5 3
-9 -1 -9 -8 -1 -8 -6 -6 -15 6 -16 22 -20 21 -29 -11 -4 -12 -2 -24 4 -28 5
-3 10 -15 10 -26 0 -10 5 -19 10 -19 6 0 10 -5 10 -11 0 -7 -9 -9 -23 -5 -14
3 -32 -1 -43 -9 -18 -13 -17 -14 13 -15 17 0 35 -4 38 -10 4 -6 -7 -10 -25
-10 -26 0 -33 -6 -46 -35 -8 -19 -21 -35 -29 -35 -9 0 -18 -7 -21 -15 -4 -8
-14 -15 -24 -15 -23 0 -36 -18 -22 -32 6 -6 12 -6 16 1 8 13 56 15 56 2 0 -4
-23 -18 -51 -30 -40 -16 -55 -18 -66 -10 -20 17 -27 4 -11 -21 12 -19 10 -24
-20 -51 -20 -17 -30 -34 -26 -42 4 -6 4 -9 -1 -5 -4 4 -14 0 -21 -10 -12 -16
-13 -15 -23 8 l-10 25 0 -30 c-1 -38 -44 -63 -68 -40 -8 8 -17 15 -21 15 -10
0 -33 -53 -26 -59 4 -3 9 0 11 7 7 20 33 14 33 -8 0 -11 -4 -20 -10 -20 -5 0
-10 -6 -10 -14 0 -7 -17 -22 -37 -31 -42 -20 -67 -42 -76 -68 -6 -16 -14 -18
-57 -12 -43 6 -50 5 -50 -10 0 -13 6 -16 24 -11 14 3 28 2 31 -4 3 -5 1 -10
-5 -10 -17 0 -70 -39 -70 -52 0 -7 4 -7 13 0 14 11 77 26 77 18 0 -14 -76 -36
-102 -31 -17 4 -28 2 -28 -4 0 -6 5 -11 10 -11 6 0 10 -7 10 -15 0 -8 -4 -15
-10 -15 -5 0 -10 5 -10 10 0 6 -11 10 -24 10 -13 0 -27 6 -30 13 -2 6 -4 1 -3
-13 2 -20 -3 -26 -25 -28 -16 -2 -28 -7 -28 -11 0 -5 -11 -6 -25 -3 -33 6 -32
-11 1 -26 26 -12 25 -32 -2 -32 -8 0 -23 -5 -34 -12 -15 -9 -24 -9 -43 1 -13
7 -33 11 -43 8 -16 -4 -15 -5 4 -6 27 -1 28 -12 3 -35 -14 -13 -20 -14 -23 -5
-2 7 -10 9 -16 5 -17 -10 -15 -26 3 -26 8 0 15 -4 15 -10 0 -5 -11 -10 -25
-10 -19 0 -25 5 -25 21 0 12 -8 23 -20 26 -11 3 -20 9 -20 14 0 14 -20 10 -20
-3 -2 -46 -90 -83 -118 -49 -12 14 -12 13 -7 -7 5 -15 1 -30 -10 -42 -16 -18
-15 -20 36 -53 74 -47 181 -100 264 -130 101 -36 105 -38 105 -47 0 -5 -8 -10
-17 -13 -29 -6 32 -27 112 -37 148 -20 661 -8 739 16 38 12 -4 27 -93 32 -51
2 -93 8 -96 12 -2 3 19 15 48 25 360 127 626 351 812 682 53 95 145 304 145
331 0 22 15 12 35 -24 27 -51 59 -63 208 -79 154 -17 190 -24 198 -37 17 -26
326 -52 371 -31 13 6 43 19 68 29 58 25 175 140 225 223 21 36 53 98 70 138
18 41 44 83 60 95 15 12 45 49 66 81 40 61 52 98 21 62 -13 -16 -62 -33 -62
-22 0 1 16 82 35 180 49 250 73 570 57 757 -28 313 -98 491 -209 525 -36 10
-31 69 13 152 42 79 46 125 15 193 -11 25 -30 88 -43 140 -20 83 -22 115 -20
260 4 196 -7 330 -43 505 -142 696 -688 1301 -1434 1589 -47 19 -95 37 -106
41 -11 5 -24 9 -30 10 -5 2 -48 14 -95 28 -84 25 -167 46 -265 66 -75 15 -112
20 -242 35 -87 10 -315 14 -408 6z m450 -131 c128 -15 212 -33 382 -86 137
-42 164 -70 40 -42 -437 100 -765 113 -1166 48 -68 -11 -126 -17 -129 -14 -3
3 5 5 17 5 12 0 20 4 17 9 -7 11 40 29 104 41 25 4 79 15 120 25 150 33 397
39 615 14z m-885 -99 c0 -5 -4 -10 -10 -10 -5 0 -10 5 -10 10 0 6 5 10 10 10
6 0 10 -4 10 -10z m-43 -16 c-3 -3 -12 -4 -19 -1 -8 3 -5 6 6 6 11 1 17 -2 13
-5z m1500 -50 c-1 -1 -15 0 -30 3 -19 4 -25 8 -16 13 10 7 53 -9 46 -16z
m-2970 -996 c-3 -8 -6 -5 -6 6 -1 11 2 17 5 13 3 -3 4 -12 1 -19z m4574 -1356
c27 -69 42 -178 19 -142 -7 11 -10 12 -10 2 0 -9 -9 -12 -27 -8 -16 3 -52 7
-80 8 l-53 2 0 35 c0 36 18 160 25 170 2 4 24 6 50 6 l46 0 30 -73z m-1501
-1487 c0 -8 -4 -15 -10 -15 -5 0 -10 7 -10 15 0 8 5 15 10 15 6 0 10 -7 10
-15z m92 0 c0 -5 -5 -11 -11 -13 -6 -2 -11 4 -11 13 0 9 5 15 11 13 6 -2 11
-8 11 -13z m28 -25 c0 -5 -2 -10 -4 -10 -3 0 -8 5 -11 10 -3 6 -1 10 4 10 6 0
11 -4 11 -10z m-260 -19 c0 -23 -16 -36 -25 -21 -9 14 1 40 15 40 5 0 10 -9
10 -19z m97 -3 c-3 -8 -6 -5 -6 6 -1 11 2 17 5 13 3 -3 4 -12 1 -19z m-172
-177 c-3 -12 -10 -21 -15 -21 -4 0 -3 11 3 24 14 29 22 27 12 -3z m520 9 c3
-5 -1 -10 -10 -10 -9 0 -13 5 -10 10 3 6 8 10 10 10 2 0 7 -4 10 -10z m-716
-423 c6 -8 8 -17 4 -20 -7 -8 -33 11 -33 24 0 13 16 11 29 -4z m-370 -466 c9
-6 10 -10 2 -16 -15 -8 -41 1 -41 15 0 12 20 13 39 1z m-139 -116 c-7 -9 -15
-13 -17 -11 -7 7 7 26 19 26 6 0 6 -6 -2 -15z m-270 -225 c0 -5 -4 -10 -10
-10 -5 0 -10 5 -10 10 0 6 5 10 10 10 6 0 10 -4 10 -10z m-312 -105 c15 -32
15 -45 2 -45 -5 0 -10 9 -10 19 0 11 -4 23 -10 26 -12 8 -13 25 -2 25 5 0 14
-11 20 -25z m-142 -82 c-10 -10 -19 5 -10 18 6 11 8 11 12 0 2 -7 1 -15 -2
-18z"/>
<path d="M26075 6603 c-850 -50 -1585 -570 -2006 -1416 -47 -94 -56 -106 -83
-111 -17 -3 -125 -15 -241 -27 -152 -15 -223 -27 -258 -41 -123 -53 -243 -278
-293 -553 -39 -213 -27 -616 26 -875 74 -362 274 -746 424 -816 68 -31 104
-31 487 10 253 27 324 38 356 55 41 20 103 75 103 91 0 4 -12 39 -26 76 -189
494 -193 1087 -12 1653 l30 94 -28 51 c-75 139 -166 249 -231 278 -24 10 -43
22 -43 25 0 15 145 303 191 381 404 671 1021 1053 1791 1107 54 4 95 11 92 16
-5 8 -160 10 -279 2z"/>
<path d="M19923 5819 c-150 -29 -434 -244 -504 -380 -32 -65 -35 -145 -7 -194
48 -81 122 -107 288 -98 149 8 220 -15 220 -70 0 -35 -69 -143 -131 -207 -97
-99 -232 -149 -347 -128 -29 5 -83 22 -119 38 -37 15 -73 26 -80 23 -8 -3 -13
-22 -13 -47 0 -53 42 -106 114 -144 46 -24 61 -27 156 -27 92 0 113 4 170 28
136 57 302 222 368 367 47 101 26 213 -50 270 -55 41 -102 50 -255 50 -80 0
-153 5 -164 10 -13 8 -19 21 -19 46 0 71 189 234 334 289 77 29 116 31 176 10
87 -31 120 -15 120 59 0 91 -107 135 -257 105z"/>
<path d="M9500 5748 c-89 -44 -214 -187 -415 -475 -43 -62 -79 -113 -80 -113
-1 0 18 99 42 220 49 242 50 271 4 322 -37 41 -109 50 -168 20 -55 -28 -145
-107 -211 -184 -148 -173 -337 -521 -417 -767 -31 -93 -32 -144 -5 -171 25
-25 81 -26 103 -2 9 10 41 83 71 163 144 384 308 682 428 776 43 34 73 42 81
21 9 -26 -15 -164 -54 -316 -155 -592 -153 -586 -121 -615 24 -22 66 -22 87 0
9 9 39 62 65 118 52 108 307 501 407 625 32 41 84 99 114 128 50 49 54 51 57
30 1 -13 -11 -86 -28 -163 -16 -77 -53 -256 -82 -397 l-53 -257 21 -27 c34
-46 50 -51 81 -28 15 12 34 32 41 47 14 29 46 198 97 512 20 121 45 269 56
328 23 120 20 169 -14 205 -26 28 -50 28 -107 0z"/>
<path d="M10663 5725 c-14 -10 -28 -42 -43 -97 -20 -79 -78 -285 -175 -628
-78 -276 -88 -336 -59 -364 16 -17 70 -21 92 -7 7 4 30 73 51 152 l38 144 53
27 c71 38 103 37 133 -4 34 -47 46 -89 58 -203 5 -55 12 -107 15 -116 7 -25
55 -42 86 -30 43 16 58 48 58 121 -1 139 -49 281 -117 341 l-37 32 30 21 c92
67 192 156 208 187 24 44 16 81 -19 97 -49 23 -65 14 -179 -96 -100 -97 -236
-211 -236 -198 0 13 94 324 130 431 22 65 40 129 40 141 0 28 -44 64 -79 64
-15 0 -36 -7 -48 -15z"/>
<path d="M12842 5714 c-28 -19 -52 -65 -52 -98 0 -43 -58 -252 -140 -506 -119
-367 -119 -375 -31 -447 l56 -45 70 4 c57 4 116 23 319 99 277 104 316 127
316 191 0 34 -24 68 -48 68 -12 0 -103 -36 -287 -115 -114 -48 -236 -85 -283
-85 -30 0 -32 3 -32 33 0 44 44 201 134 477 87 265 100 319 92 366 -13 66 -65
93 -114 58z"/>
<path d="M21399 5711 c-72 -23 -132 -65 -203 -141 -71 -78 -96 -127 -144 -287
l-39 -128 -44 -7 c-74 -12 -114 -82 -71 -121 10 -9 33 -22 50 -28 32 -11 32
-12 26 -63 -3 -28 -17 -107 -30 -175 -14 -68 -22 -133 -18 -145 10 -33 45 -66
70 -66 62 0 78 29 99 181 25 179 36 241 45 259 9 16 71 31 198 46 62 8 84 32
86 91 1 30 -4 40 -26 52 -23 13 -39 14 -124 3 -53 -7 -99 -11 -101 -9 -7 8 41
145 74 210 52 104 154 194 238 211 38 8 48 0 66 -49 27 -72 94 -80 132 -15 28
48 22 85 -23 134 -62 67 -150 83 -261 47z"/>
<path d="M13662 5634 c-50 -34 -70 -118 -37 -154 36 -40 130 -16 161 42 24 41
17 73 -20 102 -39 30 -72 33 -104 10z"/>
<path d="M16913 5626 c-16 -14 -35 -44 -42 -67 -11 -38 -11 -45 7 -68 40 -54
147 -28 171 41 16 46 14 56 -21 89 -40 36 -77 37 -115 5z"/>
<path d="M14662 5620 c-27 -11 -42 -47 -42 -103 0 -23 -13 -89 -28 -147 l-29
-105 -64 -3 c-41 -2 -70 -9 -81 -19 -18 -16 -24 -59 -10 -79 14 -20 57 -44 79
-44 13 0 23 -2 23 -4 0 -3 -9 -42 -20 -88 -29 -121 -27 -220 6 -287 37 -74 86
-104 175 -109 60 -4 77 0 124 23 81 39 143 106 193 207 50 101 53 141 11 146
-22 3 -35 -7 -72 -55 -87 -113 -167 -173 -231 -173 -52 0 -65 8 -76 50 -13 50
22 263 49 293 4 4 83 23 177 42 154 32 171 38 197 65 31 34 35 71 10 95 -21
21 -71 17 -231 -18 -100 -22 -113 -23 -107 -9 3 9 18 65 31 124 30 125 24 167
-26 193 -16 8 -30 15 -32 14 -2 0 -13 -4 -26 -9z"/>
<path d="M26550 5551 c-77 -25 -125 -71 -149 -140 -14 -44 -15 -611 0 -664 24
-86 111 -146 212 -147 95 0 158 36 200 115 21 39 22 51 22 365 l0 325 -28 47
c-36 62 -94 96 -173 103 -32 2 -70 1 -84 -4z m112 -168 c17 -15 18 -38 18
-308 0 -213 -3 -294 -12 -303 -7 -7 -30 -12 -53 -12 -23 0 -46 5 -53 12 -9 9
-12 90 -12 304 0 253 2 295 16 308 20 21 73 20 96 -1z"/>
<path d="M25689 5543 c-1 -5 -1 -17 0 -28 1 -30 101 -857 107 -882 4 -20 11
-23 48 -23 l43 0 47 168 c26 92 54 192 63 222 l16 55 44 -160 c25 -88 53 -187
62 -220 l16 -60 48 -3 c28 -2 47 1 47 7 0 6 25 211 55 456 30 245 55 452 55
460 0 20 -148 22 -155 3 -2 -7 -14 -101 -25 -208 -11 -107 -22 -199 -23 -204
-2 -5 -16 39 -31 97 -52 199 -40 178 -94 175 l-47 -3 -36 -135 c-20 -74 -39
-128 -42 -120 -3 8 -12 92 -22 185 -24 249 -13 225 -101 225 -41 0 -74 -3 -75
-7z"/>
<path d="M26928 5544 c-5 -4 -8 -216 -8 -471 l0 -463 80 0 80 0 0 185 0 185
28 0 28 0 33 -167 c18 -93 35 -176 37 -185 5 -15 18 -18 85 -18 72 0 80 2 75
18 -2 9 -21 101 -42 204 l-37 186 31 36 c45 52 55 95 51 234 -4 115 -5 122
-34 164 -17 23 -51 54 -75 68 -41 22 -58 25 -185 28 -77 2 -143 1 -147 -4z
m266 -169 c21 -21 30 -76 23 -146 -7 -78 -17 -89 -83 -89 l-54 0 0 125 0 125
49 0 c31 0 55 -6 65 -15z"/>
<path d="M27450 5080 l0 -470 195 0 196 0 -3 78 -3 77 -117 3 -118 3 0 389 0
390 -75 0 -75 0 0 -470z"/>
<path d="M27908 5544 c-5 -4 -8 -216 -8 -471 l0 -463 143 0 c117 0 149 4 182
19 53 24 83 55 106 105 17 37 19 70 19 337 0 198 -4 307 -12 330 -18 53 -45
87 -96 116 -44 26 -56 28 -187 31 -77 2 -143 1 -147 -4z m266 -169 c23 -24 28
-83 24 -336 -2 -182 -6 -240 -17 -252 -9 -12 -29 -17 -67 -17 l-54 0 0 310 0
310 49 0 c31 0 55 -6 65 -15z"/>
<path d="M16083 5379 c-28 -15 -159 -356 -203 -527 -34 -135 -38 -193 -14
-216 20 -21 78 -21 98 0 17 17 18 19 42 138 21 105 72 244 98 267 128 111 253
189 302 189 59 0 55 -80 -13 -245 -54 -130 -90 -233 -104 -294 -13 -58 7 -91
55 -91 65 0 69 9 207 410 51 147 59 220 31 282 -26 60 -66 81 -147 81 -66 0
-128 -25 -218 -89 l-47 -34 15 36 c19 45 19 68 1 83 -21 17 -77 22 -103 10z"/>
<path d="M17253 5380 c-12 -5 -28 -22 -36 -37 -35 -68 -152 -398 -178 -502
-44 -174 -37 -221 35 -221 52 0 64 17 86 120 27 125 78 279 99 296 165 136
257 194 308 194 57 0 53 -92 -13 -248 -93 -222 -122 -340 -92 -370 18 -18 73
-15 97 6 15 11 50 96 108 257 72 200 86 252 90 315 3 59 0 82 -14 110 -55 104
-210 97 -365 -16 l-49 -37 15 38 c20 46 20 69 3 84 -20 16 -69 22 -94 11z"/>
<path d="M14108 5371 c-50 -10 -173 -86 -229 -142 -114 -113 -77 -227 99 -298
82 -33 112 -55 112 -83 0 -23 -17 -34 -95 -58 -46 -14 -100 -22 -155 -23 -81
-2 -85 -3 -100 -29 -13 -25 -13 -30 2 -55 55 -92 221 -80 388 28 67 43 99 94
108 177 4 39 2 45 -34 79 -23 22 -78 54 -133 77 -112 49 -126 64 -91 102 30
32 98 72 152 91 39 13 43 13 80 -12 22 -14 47 -25 56 -23 46 9 55 118 12 149
-29 20 -118 30 -172 20z"/>
<path d="M10025 5331 c-58 -14 -101 -44 -185 -130 -93 -94 -145 -182 -174
-297 -30 -118 -19 -173 48 -232 69 -60 135 -49 254 41 31 23 62 46 67 49 7 4
9 -17 7 -64 -5 -81 0 -88 66 -88 37 0 45 4 61 31 10 16 22 57 25 90 4 34 32
158 63 277 72 285 69 264 40 298 -24 28 -27 28 -133 30 -60 1 -122 -2 -139 -5z
m122 -127 c11 -30 -16 -136 -49 -192 -41 -69 -165 -195 -219 -222 -22 -12 -50
-20 -62 -18 -20 3 -22 9 -22 68 0 81 39 167 115 252 56 63 101 94 163 114 56
17 67 17 74 -2z"/>
<path d="M18203 5325 c-71 -22 -125 -60 -209 -147 -89 -93 -144 -189 -164
-284 -15 -70 -9 -95 36 -144 77 -85 179 -74 307 32 26 21 47 36 47 32 0 -21
-55 -184 -75 -224 -13 -25 -40 -64 -61 -88 -34 -37 -49 -46 -114 -62 -89 -23
-130 -59 -130 -114 0 -49 19 -60 98 -54 169 12 309 149 391 381 30 86 104 426
117 539 5 45 3 63 -10 84 -37 56 -142 78 -233 49z m85 -144 c10 -106 -209
-352 -301 -339 -19 3 -22 9 -20 40 5 86 109 223 228 300 70 46 89 46 93 -1z"/>
<path d="M20499 5326 c-84 -22 -191 -117 -269 -238 -41 -62 -86 -187 -97 -264
-11 -83 62 -180 144 -191 45 -5 102 22 195 94 l60 46 -7 -67 c-5 -47 -4 -70 5
-81 13 -16 86 -21 107 -7 19 12 43 77 43 116 0 19 25 133 56 253 69 265 74
301 44 328 -17 16 -38 19 -128 21 -61 1 -127 -3 -153 -10z m125 -174 c-1 -89
-37 -155 -143 -261 -87 -88 -143 -125 -184 -119 -18 2 -23 11 -25 41 -9 114
113 308 233 370 42 21 93 37 110 32 6 -1 10 -29 9 -63z"/>
<path d="M11417 5280 c-87 -34 -203 -141 -258 -240 -13 -22 -31 -42 -41 -46
-36 -11 -61 -87 -36 -112 7 -7 11 -35 9 -71 -3 -68 14 -115 55 -152 48 -43 90
-54 199 -54 117 1 182 18 274 72 74 44 103 83 99 133 -3 32 -6 35 -34 34 -16
-1 -66 -22 -110 -47 -133 -78 -247 -94 -309 -45 -23 18 -26 26 -23 71 l3 51
76 12 c247 38 380 129 382 262 1 65 -25 109 -76 133 -55 24 -147 24 -210 -1z
m124 -126 c34 -41 -51 -105 -170 -128 l-71 -14 33 47 c63 88 172 138 208 95z"/>
<path d="M13566 5285 c-12 -9 -29 -52 -47 -117 -15 -57 -50 -188 -78 -292 -61
-226 -62 -245 -20 -280 35 -29 61 -33 83 -11 17 17 13 5 65 203 23 83 59 219
81 301 22 82 40 156 40 164 0 43 -82 64 -124 32z"/>
<path d="M15475 5283 c-88 -36 -204 -141 -259 -235 -15 -26 -36 -50 -47 -53
-11 -4 -27 -22 -36 -41 -14 -29 -15 -37 -3 -61 7 -16 12 -51 11 -79 -4 -85 31
-148 104 -187 56 -30 231 -30 321 0 70 23 168 85 191 119 21 33 22 84 1 97
-14 10 -40 0 -141 -52 -116 -60 -128 -64 -194 -65 -87 -1 -126 21 -131 74 -7
68 0 75 87 87 103 15 221 55 277 94 123 84 137 235 29 296 -49 28 -149 30
-210 6z m123 -142 c8 -51 -76 -102 -192 -117 -45 -7 -48 -6 -38 12 15 28 81
93 116 115 20 13 45 18 71 17 33 -3 41 -7 43 -27z"/>
<path d="M16825 5286 c-19 -13 -28 -46 -130 -431 -54 -206 -55 -225 -14 -259
17 -14 38 -26 48 -26 41 0 39 -5 185 538 20 73 36 139 36 146 0 39 -85 61
-125 32z"/>
<path d="M21768 5281 c-87 -34 -172 -110 -248 -221 -13 -19 -41 -51 -62 -71
-40 -37 -51 -82 -26 -107 7 -7 11 -35 9 -71 -6 -149 96 -223 291 -208 91 7
165 31 243 78 68 40 97 80 93 129 -3 32 -6 35 -34 34 -16 -1 -66 -22 -110 -47
-136 -79 -251 -95 -312 -42 -21 18 -26 31 -25 64 2 52 8 61 39 61 49 0 180 32
250 61 69 29 137 86 163 136 17 33 13 121 -6 154 -39 65 -165 89 -265 50z
m123 -127 c19 -23 -6 -63 -58 -92 -48 -26 -187 -57 -176 -38 62 107 193 180
234 130z"/>
<path d="M28763 4361 c-77 -20 -132 -75 -154 -153 -6 -25 -9 -151 -7 -341 3
-291 4 -304 25 -344 80 -149 310 -151 393 -3 24 44 25 50 25 245 l0 200 -110
0 -110 0 -3 -77 -3 -78 38 0 38 0 -3 -107 c-2 -59 -8 -113 -14 -120 -13 -16
-90 -17 -106 -1 -9 9 -12 90 -12 304 0 328 -1 324 69 324 21 0 43 -6 49 -13 6
-7 12 -42 14 -77 l3 -65 78 -3 77 -3 0 63 c0 113 -34 186 -106 225 -45 25
-132 36 -181 24z"/>
<path d="M25720 3890 l0 -470 75 0 75 0 0 200 0 200 70 0 70 0 0 -200 0 -201
78 3 77 3 0 465 0 465 -75 0 -75 0 -3 -187 -2 -188 -70 0 -70 0 0 190 0 190
-75 0 -75 0 0 -470z"/>
<path d="M26265 4348 c-3 -7 -4 -218 -3 -468 l3 -455 195 0 195 0 0 75 0 75
-117 3 -118 3 0 119 0 120 80 0 80 0 0 80 0 80 -80 0 -80 0 0 110 0 109 118 3
117 3 0 75 0 75 -193 3 c-148 2 -194 0 -197 -10z"/>
<path d="M26885 4348 c-2 -7 -43 -209 -90 -448 -48 -239 -89 -445 -92 -457 -5
-22 -3 -23 75 -23 l81 0 12 75 12 75 78 0 c87 0 79 7 99 -92 l11 -58 75 0 c64
0 74 2 74 18 0 13 -153 798 -175 900 -5 20 -11 22 -81 22 -51 0 -76 -4 -79
-12z m125 -605 c0 -21 -5 -23 -51 -23 -48 0 -51 1 -46 23 3 12 13 65 22 117
28 168 26 167 51 30 13 -69 23 -135 24 -147z"/>
<path d="M27290 3890 l0 -470 75 0 75 0 0 185 0 185 30 0 c17 0 30 -1 30 -2 1
-2 17 -84 38 -183 l37 -180 78 -3 c50 -2 77 1 77 8 0 6 -18 98 -40 205 l-39
194 29 31 c40 42 60 116 60 215 0 106 -19 168 -67 217 -52 53 -108 68 -260 68
l-123 0 0 -470z m272 293 c15 -13 18 -32 18 -109 0 -113 -8 -124 -86 -124
l-54 0 0 125 0 125 52 0 c34 0 58 -6 70 -17z"/>
<path d="M27815 4348 c-3 -7 -4 -218 -3 -468 l3 -455 78 -3 77 -3 -2 468 -3
468 -73 3 c-52 2 -74 -1 -77 -10z"/>
<path d="M28060 3890 l0 -471 76 3 76 3 1 223 2 223 35 -73 c19 -40 67 -142
107 -225 l72 -153 46 0 45 0 0 470 0 470 -75 0 -75 0 -2 -227 -3 -226 -106
224 -105 224 -47 3 -47 3 0 -471z"/>
<path d="M4224 3542 c-16 -15 -37 -42 -46 -60 -10 -18 -25 -35 -35 -39 -22 -9
-75 -55 -69 -61 10 -10 119 85 136 118 21 41 36 50 83 50 24 0 28 3 17 10 -26
17 -57 11 -86 -18z"/>
<path d="M4370 3529 c0 -5 12 -9 28 -9 15 0 38 -3 52 -6 17 -5 22 -3 15 3 -13
14 -95 24 -95 12z"/>
<path d="M4580 3425 c39 -15 95 -20 70 -6 -8 5 -35 11 -60 14 l-45 6 35 -14z"/>
<path d="M4691 3381 c13 -11 26 -17 28 -15 5 5 -30 33 -43 34 -4 0 2 -9 15
-19z"/>
<path d="M3831 3320 c-22 -22 -38 -40 -35 -40 4 0 26 18 50 40 24 22 40 40 35
40 -5 0 -27 -18 -50 -40z"/>
<path d="M4749 3339 c13 -11 27 -17 30 -13 7 7 -28 34 -43 34 -6 -1 0 -10 13
-21z"/>
<path d="M5401 2884 c0 -11 3 -14 6 -6 3 7 2 16 -1 19 -3 4 -6 -2 -5 -13z"/>
<path d="M4726 2271 c-4 -7 -5 -15 -2 -18 9 -9 19 4 14 18 -4 11 -6 11 -12 0z"/>
<path d="M4520 2050 c0 -12 8 -12 35 0 18 8 17 9 -7 9 -16 1 -28 -3 -28 -9z"/>
<path d="M4495 1981 c-6 -5 -21 -11 -35 -14 -14 -3 -8 -4 14 -4 22 1 41 8 44
15 4 14 -10 16 -23 3z"/>
<path d="M4315 1850 c3 -5 8 -10 11 -10 2 0 4 5 4 10 0 6 -5 10 -11 10 -5 0
-7 -4 -4 -10z"/>
<path d="M4200 1760 c0 -5 7 -10 15 -10 8 0 15 5 15 10 0 6 -7 10 -15 10 -8 0
-15 -4 -15 -10z"/>
<path d="M4280 1760 c0 -5 5 -10 10 -10 6 0 10 5 10 10 0 6 -4 10 -10 10 -5 0
-10 -4 -10 -10z"/>
</g>
</svg>
