<svg width="32" height="32" viewBox="0 0 32 32" fill="none" xmlns="http://www.w3.org/2000/svg">
<path d="M15.8062 30.0738C14.0212 30.0738 12.8302 29.2308 11.7667 28.4883C11.0107 27.9528 10.3027 27.4443 9.46719 27.3033C9.0694 27.2349 8.66632 27.2017 8.26268 27.2043C7.55468 27.2043 6.99218 27.3108 6.59167 27.3918C6.33667 27.4368 6.12367 27.4788 5.95567 27.4788C5.78167 27.4788 5.56117 27.4308 5.47567 27.1368C5.40067 26.8968 5.35417 26.6688 5.30767 26.4483C5.18766 25.8933 5.08716 25.5528 4.87866 25.5183C2.64515 25.1778 1.30864 24.6633 1.04764 24.0543C1.02664 23.9883 1.00114 23.9193 1.00114 23.8668C0.986137 23.6808 1.12114 23.5263 1.30864 23.4918C3.08015 23.1993 4.67166 22.2558 6.01567 20.7048C7.05968 19.5003 7.56818 18.3363 7.61468 18.2103C7.61468 18.1953 7.62818 18.1953 7.62818 18.1953C7.88318 17.6687 7.93568 17.2202 7.78118 16.8527C7.49318 16.1627 6.54367 15.8687 5.89567 15.6677C5.72917 15.6227 5.58817 15.5687 5.46817 15.5282C4.91316 15.3077 3.98916 14.8382 4.11066 14.1902C4.19766 13.7222 4.81866 13.3877 5.32717 13.3877C5.46817 13.3877 5.58817 13.4087 5.68717 13.4627C6.25717 13.7222 6.77168 13.8557 7.21268 13.8557C7.76168 13.8557 8.02268 13.6487 8.08868 13.5827C8.07472 13.286 8.05722 12.9895 8.03618 12.6932C7.90118 10.6457 7.74818 8.10469 8.39619 6.64818C10.3432 2.28765 14.4757 1.93815 15.6997 1.93815L16.2337 1.92615H16.3087C17.5312 1.92615 21.6638 2.26665 23.6108 6.63468C24.2663 8.09119 24.1058 10.6397 23.9708 12.6797L23.9573 12.7802C23.9453 13.0532 23.9243 13.3142 23.9123 13.5827C23.9783 13.6352 24.2183 13.8362 24.7133 13.8422C25.1423 13.8302 25.6103 13.6892 26.1443 13.4477C26.2921 13.3838 26.4513 13.3502 26.6123 13.3487C26.7998 13.3487 26.9873 13.3937 27.1478 13.4477H27.1613C27.6098 13.6157 27.9038 13.9292 27.9038 14.2577C27.9173 14.5652 27.6758 15.0332 26.5328 15.4952C26.4128 15.5402 26.2718 15.5957 26.1053 15.6347C25.4693 15.8297 24.5198 16.1372 24.2183 16.8197C24.0518 17.1797 24.1178 17.6417 24.3728 18.1638C24.3728 18.1758 24.3863 18.1758 24.3863 18.1758C24.4598 18.3633 26.3918 22.7508 30.6923 23.4663C30.7802 23.4811 30.8598 23.5272 30.9163 23.5962C30.9729 23.6651 31.0025 23.7522 30.9998 23.8413C31.0009 23.9087 30.9849 23.9752 30.9533 24.0348C30.6923 24.6498 29.3678 25.1508 27.1208 25.4988C26.9138 25.5318 26.8133 25.8738 26.6933 26.4288C26.6457 26.6601 26.5902 26.8898 26.5268 27.1173C26.4593 27.3378 26.3183 27.4578 26.0768 27.4578H26.0453C25.8314 27.4536 25.6185 27.429 25.4093 27.3843C24.8595 27.2671 24.2989 27.2088 23.7368 27.2103C23.3337 27.2112 22.9314 27.2448 22.5338 27.3108C21.7043 27.4458 20.9888 27.9603 20.2328 28.4958C19.1558 29.2308 17.9587 30.0738 16.1872 30.0738H15.8062Z" fill="white"/>
</svg>
