<svg width="32" height="32" viewBox="0 0 32 32" fill="none" xmlns="http://www.w3.org/2000/svg">
<path d="M15.8347 28C14.3127 28 13.2972 27.2812 12.3904 26.6481C11.7458 26.1915 11.1421 25.758 10.4297 25.6377C10.0905 25.5794 9.74686 25.5511 9.4027 25.5533C8.79902 25.5533 8.31941 25.6441 7.97792 25.7132C7.7605 25.7516 7.57888 25.7874 7.43564 25.7874C7.28727 25.7874 7.09926 25.7464 7.02636 25.4958C6.96241 25.2911 6.92277 25.0967 6.88312 24.9087C6.7808 24.4355 6.69511 24.1452 6.51733 24.1157C4.61293 23.8254 3.47337 23.3867 3.25082 22.8675C3.23292 22.8112 3.21117 22.7524 3.21117 22.7076C3.19839 22.549 3.31349 22.4173 3.47337 22.3879C4.98384 22.1385 6.34083 21.334 7.48679 20.0115C8.37696 18.9845 8.81053 17.992 8.85018 17.8846C8.85018 17.8718 8.86169 17.8718 8.86169 17.8718C9.07912 17.4229 9.12388 17.0404 8.99215 16.7271C8.74659 16.1388 7.93699 15.8881 7.38448 15.7167C7.24251 15.6783 7.12229 15.6323 7.01997 15.5978C6.54675 15.4098 5.7589 15.0094 5.86249 14.4569C5.93667 14.0579 6.46617 13.7727 6.89974 13.7727C7.01997 13.7727 7.12229 13.7906 7.2067 13.8366C7.69271 14.0579 8.1314 14.1717 8.50742 14.1717C8.97552 14.1717 9.19807 13.9952 9.25434 13.9389C9.24243 13.6859 9.22751 13.4331 9.20958 13.1805C9.09447 11.4347 8.96401 9.26811 9.51653 8.02622C11.1766 4.30823 14.7002 4.01023 15.7439 4.01023L16.1992 4H16.2631C17.3055 4 20.8291 4.29033 22.4892 8.01471C23.0481 9.2566 22.9113 11.4296 22.7961 13.169L22.7846 13.2547C22.7744 13.4875 22.7565 13.71 22.7463 13.9389C22.8025 13.9837 23.0072 14.1551 23.4292 14.1602C23.795 14.15 24.1941 14.0297 24.6494 13.8238C24.7754 13.7694 24.9111 13.7407 25.0484 13.7394C25.2083 13.7394 25.3682 13.7778 25.505 13.8238H25.5165C25.8989 13.9671 26.1496 14.2344 26.1496 14.5145C26.1611 14.7767 25.9552 15.1757 24.9806 15.5696C24.8783 15.608 24.7581 15.6553 24.6161 15.6886C24.0738 15.8548 23.2643 16.117 23.0072 16.699C22.8652 17.0059 22.9215 17.3998 23.1389 17.8449C23.1389 17.8552 23.1504 17.8552 23.1504 17.8552C23.2131 18.015 24.8604 21.756 28.5272 22.3661C28.6022 22.3787 28.67 22.4181 28.7182 22.4769C28.7664 22.5356 28.7917 22.6099 28.7894 22.6859C28.7903 22.7433 28.7767 22.8001 28.7498 22.8508C28.5272 23.3752 27.3979 23.8024 25.482 24.0991C25.3055 24.1273 25.2198 24.4189 25.1175 24.8921C25.0769 25.0893 25.0295 25.2851 24.9755 25.4791C24.918 25.6671 24.7977 25.7695 24.5918 25.7695H24.565C24.3826 25.7659 24.201 25.7449 24.0227 25.7068C23.5539 25.6069 23.0759 25.5572 22.5966 25.5584C22.253 25.5592 21.9099 25.5879 21.5709 25.6441C20.8636 25.7592 20.2535 26.1979 19.6089 26.6545C18.6906 27.2812 17.67 28 16.1595 28H15.8347Z" fill="black"/>
</svg>
