<svg width="32" height="32" viewBox="0 0 32 32" fill="none" xmlns="http://www.w3.org/2000/svg">
<path d="M23.6667 5.7C22.5274 4.39937 21.8995 2.72905 21.9 1H16.75V21.6667C16.7103 22.785 16.2381 23.8444 15.433 24.6216C14.6278 25.3988 13.5524 25.8332 12.4333 25.8333C10.0667 25.8333 8.10002 23.9 8.10002 21.5C8.10002 18.6333 10.8667 16.4833 13.7167 17.3667V12.1C7.96668 11.3333 2.93335 15.8 2.93335 21.5C2.93335 27.05 7.53335 31 12.4167 31C17.65 31 21.9 26.75 21.9 21.5V11.0167C23.9883 12.5164 26.4956 13.3211 29.0667 13.3167V8.16667C29.0667 8.16667 25.9333 8.31667 23.6667 5.7Z" fill="white"/>
</svg>
