<svg width="32" height="32" viewBox="0 0 32 32" fill="none" xmlns="http://www.w3.org/2000/svg">
<path d="M10.4237 28.1881C21.745 28.1881 27.9381 18.8075 27.9381 10.6869C27.9381 10.4244 27.9381 10.1581 27.9269 9.89563C29.1326 9.02279 30.1732 7.94216 31 6.70438C29.8737 7.20097 28.6802 7.52826 27.4581 7.67563C28.7454 6.9062 29.7095 5.69557 30.1712 4.26875C28.9619 4.98524 27.6382 5.4882 26.2581 5.75563C25.3303 4.76755 24.1026 4.11297 22.7652 3.8933C21.4277 3.67362 20.0551 3.90111 18.86 4.54051C17.6649 5.17992 16.714 6.19556 16.1546 7.43012C15.5952 8.66468 15.4585 10.0493 15.7656 11.3694C13.3183 11.2467 10.924 10.6109 8.7382 9.50327C6.55238 8.39566 4.62378 6.84096 3.0775 4.94C2.29251 6.29578 2.05295 7.8995 2.40746 9.4255C2.76197 10.9515 3.68398 12.2854 4.98625 13.1563C4.01039 13.1231 3.05598 12.8611 2.2 12.3913V12.4756C2.20168 13.8959 2.6937 15.272 3.59289 16.3714C4.49208 17.4708 5.74328 18.226 7.135 18.5094C6.60674 18.6549 6.06106 18.7275 5.51312 18.725C5.12684 18.7262 4.74134 18.6904 4.36188 18.6181C4.75522 19.8407 5.52114 20.9097 6.55234 21.6753C7.58354 22.4409 8.82838 22.8647 10.1125 22.8875C7.93104 24.6009 5.23638 25.5301 2.4625 25.5256C1.97373 25.5277 1.48529 25.4995 1 25.4413C3.81534 27.2361 7.08493 28.1892 10.4237 28.1881Z" fill="white"/>
</svg>
