<svg width="32" height="32" viewBox="0 0 32 32" fill="none" xmlns="http://www.w3.org/2000/svg">
<path d="M10.4237 28.1882C21.745 28.1882 27.9381 18.8076 27.9381 10.6869C27.9381 10.4244 27.9381 10.1582 27.9269 9.89569C29.1326 9.02285 30.1732 7.94222 31 6.70444C29.8737 7.20103 28.6802 7.52833 27.4581 7.67569C28.7454 6.90626 29.7095 5.69563 30.1712 4.26881C28.9619 4.9853 27.6382 5.48826 26.2581 5.75569C25.3303 4.76761 24.1026 4.11303 22.7652 3.89336C21.4277 3.67368 20.0551 3.90117 18.86 4.54057C17.6649 5.17998 16.714 6.19562 16.1546 7.43018C15.5952 8.66474 15.4585 10.0493 15.7656 11.3694C13.3183 11.2467 10.924 10.6109 8.7382 9.50333C6.55238 8.39572 4.62378 6.84102 3.0775 4.94006C2.29251 6.29585 2.05295 7.89957 2.40746 9.42556C2.76197 10.9516 3.68398 12.2854 4.98625 13.1563C4.01039 13.1232 3.05598 12.8611 2.2 12.3913V12.4757C2.20168 13.896 2.6937 15.2721 3.59289 16.3715C4.49208 17.4709 5.74328 18.2261 7.135 18.5094C6.60674 18.655 6.06106 18.7275 5.51312 18.7251C5.12684 18.7262 4.74134 18.6904 4.36188 18.6182C4.75522 19.8408 5.52114 20.9098 6.55234 21.6753C7.58354 22.4409 8.82838 22.8648 10.1125 22.8876C7.93104 24.6009 5.23638 25.5302 2.4625 25.5257C1.97373 25.5278 1.48529 25.4996 1 25.4413C3.81534 27.2362 7.08493 28.1892 10.4237 28.1882Z" fill="black"/>
</svg>
