<svg width="24" height="24" viewBox="0 0 24 24" fill="none" xmlns="http://www.w3.org/2000/svg">
<g clip-path="url(#clip0_167_127)">
<path d="M11.1839 16.6452C10.8835 16.6452 10.6414 16.4015 10.6414 16.1027C10.6414 15.8038 10.8851 15.5602 11.1839 15.5602H14.2261C14.5264 15.5602 14.7686 15.8038 14.7686 16.1027C14.7686 16.4015 14.5249 16.6452 14.2261 16.6452H11.1839ZM6.56015 16.1073C6.43755 15.9234 6.48659 15.6751 6.6705 15.551C6.85441 15.4284 7.10268 15.4774 7.22682 15.6613L7.44444 15.9862L8.31035 14.9318C8.45134 14.7617 8.70268 14.7372 8.87433 14.8766C9.04445 15.0176 9.06897 15.269 8.9295 15.4406L7.73103 16.8981C7.70498 16.9318 7.6728 16.9625 7.63602 16.987C7.45211 17.1096 7.20383 17.0606 7.07969 16.8766L6.56015 16.1073ZM6.56015 12.2912C6.43755 12.1073 6.48659 11.859 6.6705 11.7349C6.85441 11.6123 7.10268 11.6613 7.22682 11.8452L7.44444 12.1701L8.31035 11.1157C8.45134 10.9456 8.70268 10.9211 8.87433 11.0606C9.04445 11.2015 9.06897 11.4529 8.9295 11.6245L7.73103 13.082C7.70498 13.1157 7.6728 13.1464 7.63602 13.1709C7.45211 13.2935 7.20383 13.2445 7.07969 13.0606L6.56015 12.2912ZM6.56015 8.47358C6.43755 8.28967 6.48659 8.04139 6.6705 7.91726C6.85441 7.79465 7.10268 7.84369 7.22682 8.0276L7.44444 8.35251L8.31035 7.2981C8.45134 7.12799 8.70268 7.10346 8.87433 7.24293C9.04445 7.38392 9.06897 7.63526 8.9295 7.80691L7.73103 9.26438C7.70498 9.2981 7.6728 9.32875 7.63602 9.35327C7.45211 9.47588 7.20383 9.42684 7.07969 9.24293L6.56015 8.47358ZM11.1839 8.56553C10.8835 8.56553 10.6414 8.32186 10.6414 8.023C10.6414 7.72415 10.8851 7.48048 11.1839 7.48048H16.7456C17.046 7.48048 17.2881 7.72415 17.2881 8.023C17.2881 8.32186 17.0444 8.56553 16.7456 8.56553H11.1839ZM4.25977 2.58392H19.7418C20.0897 2.58392 20.4054 2.72492 20.6322 2.95174C20.859 3.17856 21 3.49427 21 3.84216V20.1548C21 20.5027 20.859 20.8184 20.6322 21.0452C20.4054 21.272 20.0897 21.413 19.7418 21.413H4.25977C3.91188 21.413 3.59617 21.272 3.36935 21.0452C3.141 20.8215 3 20.5042 3 20.1563V3.84369C3 3.4958 3.141 3.17856 3.36782 2.95174C3.59464 2.72492 3.91188 2.58392 4.25977 2.58392ZM19.7418 3.66898H4.25977C4.21073 3.66898 4.16628 3.6889 4.1341 3.72109C4.10192 3.75327 4.08199 3.79772 4.08199 3.84676V20.1594C4.08199 20.2084 4.10192 20.2529 4.1341 20.2851C4.16628 20.3173 4.21073 20.3372 4.25977 20.3372H19.7418C19.7908 20.3372 19.8352 20.3173 19.8674 20.2851C19.8996 20.2529 19.9195 20.2084 19.9195 20.1594V3.84676C19.9195 3.79772 19.8996 3.75327 19.8674 3.72109C19.8337 3.6889 19.7893 3.66898 19.7418 3.66898ZM11.1839 12.6054C10.8835 12.6054 10.6414 12.3617 10.6414 12.0629C10.6414 11.764 10.8851 11.5203 11.1839 11.5203H16.7456C17.046 11.5203 17.2881 11.764 17.2881 12.0629C17.2881 12.3617 17.0444 12.6054 16.7456 12.6054H11.1839Z" fill="#B13829"/>
</g>
<defs>
<clipPath id="clip0_167_127">
<rect width="18" height="18.8322" fill="white" transform="translate(3 2.58392)"/>
</clipPath>
</defs>
</svg>
