<svg width="24" height="24" viewBox="0 0 24 24" fill="none" xmlns="http://www.w3.org/2000/svg">
<path d="M4.60337 14.7974C4.61232 14.7518 4.61948 14.703 4.62307 14.6558C4.15757 14.1073 4.08596 13.6076 4.21665 13.2691C4.28648 13.0884 4.41359 12.9501 4.57114 12.8719C4.73228 12.7922 4.92206 12.771 5.11363 12.8264C5.44126 12.9208 5.77785 13.2365 5.96584 13.8534C6.01955 14.0292 6.04103 14.2001 6.03566 14.3596C6.03029 14.5256 5.99269 14.6835 5.93182 14.83C5.92645 14.8511 5.91929 14.8707 5.91034 14.8902L5.90676 14.8967C5.89601 14.9179 5.88348 14.939 5.86916 14.9569C5.76532 15.1474 5.61672 15.3166 5.4341 15.4647C5.25327 15.6096 5.03843 15.7333 4.8021 15.8293C4.76988 15.8863 4.74123 15.9465 4.71616 16.0084C4.68573 16.0816 4.65887 16.1597 4.63739 16.2379C4.59979 16.3778 4.57652 16.5194 4.56935 16.6594C4.56219 16.7961 4.57293 16.9312 4.598 17.0566L4.60158 17.0745C4.64813 17.0517 4.70363 17.0175 4.76629 16.9736C4.8773 16.8938 5.00799 16.7831 5.1548 16.6448C5.33205 16.4771 5.52541 16.303 5.72951 16.1239C5.9354 15.9433 6.14667 15.761 6.36509 15.5754C7.03648 14.9992 7.75799 14.3807 8.34523 13.7623C8.9271 13.1519 9.37827 12.5415 9.52329 11.9768C9.64683 11.495 9.52329 11.0311 9.02199 10.6063C8.5189 10.1815 7.64341 9.79411 6.26841 9.46533C6.30422 9.64762 6.35972 9.83154 6.4367 10.0171C6.53338 10.2531 6.66408 10.4907 6.82879 10.73L6.83417 10.7365C6.88967 10.8179 6.90399 10.9123 6.88251 10.9985C6.86102 11.0848 6.80194 11.1646 6.71242 11.215H6.71063C6.62111 11.2655 6.51727 11.2785 6.42238 11.259C6.32928 11.2394 6.24514 11.1874 6.18784 11.1092L6.18068 11.0995C5.97658 10.8016 5.81545 10.5054 5.69907 10.2092C5.58091 9.9113 5.50571 9.61344 5.47349 9.31722C5.44126 9.01936 5.45021 8.72313 5.50213 8.42853C5.55226 8.13393 5.64536 7.84422 5.77606 7.5545C6.05894 6.93112 6.44745 6.43632 6.89683 6.06685C7.3856 5.66483 7.94598 5.40767 8.52606 5.29211C8.81789 5.23351 9.11688 5.21235 9.41408 5.22537C9.71128 5.23839 10.0085 5.28722 10.2949 5.37186C10.5832 5.4565 10.8643 5.57531 11.1257 5.72994C11.3817 5.87968 11.6234 6.06197 11.8418 6.27682C12.3377 6.76185 12.7209 7.41127 12.9125 8.21369C13.0843 8.92984 13.104 9.76807 12.9142 10.7235C12.8337 11.1353 12.7137 11.5178 12.5615 11.8775C12.4094 12.2388 12.225 12.5773 12.0101 12.9045C11.8042 13.23 11.5661 13.5393 11.3047 13.8436C11.0451 14.1464 10.7622 14.4426 10.465 14.7405C10.3451 14.8593 10.2197 14.9797 10.0908 15.1018C9.97088 15.2157 9.84019 15.3362 9.70949 15.4582C9.57879 15.5884 9.43377 15.7154 9.29771 15.8424C9.01483 16.1077 8.57619 16.5178 8.21275 16.9182C7.86363 17.3023 7.58433 17.6751 7.58612 17.885V17.8948C7.58791 17.9892 7.54852 18.0771 7.48228 18.1406C7.41782 18.2024 7.32831 18.2431 7.22805 18.2496L7.21193 18.2512C7.10809 18.2529 7.01141 18.2171 6.94159 18.1568C6.87355 18.0982 6.82879 18.0169 6.82163 17.9257L6.81984 17.9111C6.8091 17.54 7.13853 17.0452 7.55031 16.5666C7.95314 16.1011 8.43654 15.6487 8.74806 15.3573C8.88413 15.2304 9.0202 15.1002 9.15806 14.9748C9.2798 14.8609 9.40334 14.7486 9.53225 14.6265C9.65399 14.511 9.77752 14.3921 9.89927 14.2717C10.1857 13.9869 10.4525 13.7053 10.696 13.4221C10.9395 13.1389 11.1597 12.8524 11.3548 12.5546C11.5482 12.26 11.7147 11.954 11.8508 11.6333C11.9868 11.3111 12.0925 10.9709 12.1659 10.6047C12.3324 9.75993 12.3198 9.02262 12.1766 8.39924C12.0173 7.71075 11.6986 7.16224 11.285 6.75697C11.1113 6.58607 10.9198 6.44121 10.7175 6.32239C10.5098 6.20032 10.2896 6.10592 10.064 6.04081C9.84198 5.97571 9.61281 5.93827 9.38185 5.92851C9.15269 5.91874 8.91994 5.93664 8.69077 5.98059C8.23244 6.07174 7.78664 6.27682 7.39813 6.60234C7.03469 6.90508 6.71958 7.31199 6.48504 7.82631C6.40985 7.99233 6.35077 8.15835 6.30601 8.32599C6.2702 8.46434 6.24514 8.60432 6.2326 8.74267C7.94777 9.12841 9.03273 9.62321 9.65399 10.1864C10.3039 10.7756 10.4489 11.4396 10.2717 12.1363C10.0998 12.8117 9.60386 13.5002 8.97365 14.1708C8.3506 14.8349 7.59507 15.4826 6.89146 16.0865C6.67482 16.2737 6.46177 16.4543 6.26483 16.6285C6.0661 16.8026 5.87811 16.9719 5.70803 17.1314C5.51646 17.3137 5.33742 17.4586 5.1745 17.5676C5.00441 17.6799 4.84686 17.7532 4.70184 17.7841C4.47446 17.8329 4.28469 17.8085 4.13609 17.7027C3.99286 17.6018 3.89618 17.4309 3.84605 17.1868C3.81024 17.011 3.79771 16.8271 3.80487 16.6399C3.81382 16.4511 3.84247 16.2607 3.89439 16.0751C3.94452 15.8896 4.01613 15.7105 4.10565 15.5412C4.19338 15.3785 4.29901 15.2255 4.42254 15.0888C4.45119 15.0578 4.47805 15.0285 4.5049 15.0025C4.52459 14.983 4.54608 14.9618 4.56935 14.9423C4.58189 14.8951 4.59442 14.8479 4.60337 14.7974ZM16.8083 11.3762C16.8011 11.3745 16.794 11.3729 16.7868 11.3713C16.674 11.3387 16.5845 11.2687 16.5308 11.1808C16.4771 11.093 16.461 10.9872 16.4896 10.883C16.4914 10.8765 16.4932 10.8683 16.4968 10.8618C16.5326 10.7593 16.6096 10.6779 16.7062 10.6291C16.8065 10.5786 16.9282 10.564 17.0464 10.5949L20.5305 11.5113C20.5376 11.5129 20.5448 11.5145 20.5519 11.5161C20.6647 11.5487 20.7543 11.6187 20.808 11.7066C20.8617 11.7945 20.8778 11.9003 20.8491 12.0044C20.8473 12.0109 20.8456 12.0191 20.842 12.0256C20.8062 12.1281 20.7292 12.2095 20.6325 12.2583C20.5358 12.3072 20.4195 12.3218 20.3049 12.2958C20.2977 12.2941 20.2905 12.2925 20.2834 12.2909L16.8083 11.3762ZM17.4421 7.60496C17.3185 7.60658 17.2057 7.56264 17.1252 7.4894C17.0428 7.41615 16.9927 7.31524 16.9909 7.20293C16.9891 7.09063 17.0375 6.98809 17.118 6.91485C17.1986 6.83997 17.3096 6.7944 17.4331 6.79277C18.5807 6.77813 19.7409 6.7472 20.8867 6.7472C21.0049 6.74883 21.1141 6.79277 21.1929 6.86276C21.2752 6.936 21.3254 7.03692 21.3272 7.14922V7.16062C21.3254 7.26804 21.277 7.36732 21.2001 7.43894C21.1195 7.51381 21.0085 7.55938 20.8849 7.56101L17.4421 7.60496ZM16.7993 4.37901C16.6937 4.43598 16.5737 4.44737 16.4645 4.42296C16.3535 4.39691 16.2533 4.33344 16.1906 4.23741L16.1888 4.23415C16.1262 4.13812 16.1136 4.02907 16.1405 3.92979C16.1691 3.82887 16.239 3.73773 16.3446 3.68076L19.3363 2.05802C19.4419 2.00105 19.5637 1.98641 19.6747 2.01245C19.7821 2.03686 19.8806 2.09871 19.9432 2.18986L19.954 2.20613C20.013 2.30054 20.0256 2.40796 19.9987 2.50562C19.9719 2.60327 19.9038 2.69279 19.8036 2.74976C18.8099 3.29501 17.8001 3.85329 16.7993 4.37901ZM2.75034 19.9277C2.75034 16.0263 2.57489 11.8026 2.75034 7.94187C2.74139 6.70651 2.74318 6.53073 3.84068 5.35396C3.97674 5.20747 4.11818 5.06749 4.2632 4.9324C4.40643 4.79894 4.55503 4.67198 4.70542 4.55317C4.8576 4.43272 5.01157 4.32042 5.16913 4.21299C5.32668 4.1072 5.48602 4.00628 5.64894 3.91351C6.29885 3.54078 6.98993 3.23154 7.69354 3.02646C8.33986 2.83765 8.99693 2.73348 9.64504 2.74488C10.2538 2.75627 10.8517 2.86695 11.4211 3.0997C11.951 3.3178 12.4577 3.64007 12.925 4.08929C13.0181 4.17881 13.1076 4.27321 13.1935 4.37087C13.2795 4.46853 13.36 4.56944 13.437 4.67687C13.514 4.78266 13.5874 4.89334 13.6572 5.00727C13.7253 5.12121 13.7915 5.23839 13.8524 5.36047C14.1066 5.86828 14.2696 6.43795 14.3626 7.04343C14.4647 7.70913 14.479 8.41714 14.4307 9.13167C14.377 9.9406 14.2409 10.7593 14.0601 11.5373C13.8506 12.4309 13.5803 13.2707 13.301 13.9755C13.0288 14.6607 12.6421 15.3817 12.1748 16.0979C11.695 16.8319 11.1293 17.5627 10.5116 18.2512C9.90285 18.9283 9.23683 19.5664 8.54933 20.1295C7.89048 20.6666 7.20835 21.1338 6.53517 21.4935C6.09833 21.7278 5.68475 21.8841 5.29982 21.9557C4.90594 22.0289 4.53892 22.0127 4.20591 21.8971C3.87111 21.7815 3.57928 21.5683 3.33579 21.2526C3.09767 20.9433 2.90611 20.5332 2.76467 20.0123L2.76288 20.0074C2.7593 19.9944 2.75751 19.983 2.75571 19.9716C2.75392 19.9554 2.75213 19.9423 2.75034 19.9277ZM3.51841 8.30321V19.8886C3.62941 20.2825 3.76727 20.5885 3.93198 20.8147C4.09133 21.0345 4.27394 21.1744 4.47805 21.2461C4.68573 21.3177 4.92922 21.3226 5.20314 21.264C5.48781 21.2037 5.80471 21.0784 6.14846 20.8945C6.78045 20.5576 7.42141 20.1165 8.04624 19.6054C8.69973 19.0716 9.33351 18.4612 9.91896 17.8101C10.5134 17.1493 11.0558 16.4495 11.5142 15.7496C11.9618 15.066 12.327 14.384 12.5848 13.7378C12.8534 13.0624 13.113 12.2567 13.3135 11.3957C13.4872 10.6486 13.6179 9.8641 13.6698 9.09098C13.7145 8.42528 13.702 7.76935 13.6107 7.16062C13.5283 6.61211 13.3815 6.09778 13.1559 5.64693C13.104 5.54276 13.0485 5.44022 12.9894 5.34256C12.9304 5.2449 12.8677 5.1505 12.8015 5.06098C12.737 4.97146 12.6672 4.88683 12.5973 4.80545C12.5257 4.72407 12.4505 4.64431 12.3736 4.57107C11.9797 4.19346 11.5554 3.92165 11.1131 3.73935C10.6369 3.54404 10.1392 3.45127 9.6325 3.4415C9.06496 3.43173 8.48488 3.52451 7.91017 3.69541C7.27639 3.88259 6.65155 4.16416 6.05894 4.50434C5.91213 4.58897 5.76711 4.67849 5.62567 4.77452C5.48423 4.87055 5.34637 4.97146 5.2103 5.07889C5.07424 5.18631 4.94175 5.30024 4.81105 5.42232C4.68036 5.54276 4.55324 5.67134 4.42612 5.80643C3.96242 6.30286 3.73146 6.58607 3.62046 6.86602C3.51125 7.14434 3.51304 7.43731 3.51662 7.95164C3.51662 7.9728 3.51841 8.30321 3.51841 8.30321Z" fill="#B13829"/>
</svg>
