<svg width="24" height="24" viewBox="0 0 24 24" fill="none" xmlns="http://www.w3.org/2000/svg">
<path fill-rule="evenodd" clip-rule="evenodd" d="M19.2207 16.1532H22.6666C22.8503 16.1532 23 16.304 23 16.487V19.949C23 20.1318 22.8496 20.2826 22.6666 20.2826H19.2207C19.0373 20.2826 18.8869 20.1325 18.8869 19.949V16.4871C18.8869 16.3038 19.037 16.1534 19.2207 16.1534V16.1532ZM1.69034 3.36066H5.13637C5.32548 3.36066 5.4979 3.43876 5.62348 3.56407L5.62413 3.56333C5.74925 3.68846 5.82698 3.86143 5.82698 4.05127V19.9488C5.82698 20.1386 5.74907 20.3116 5.62403 20.4365C5.49909 20.5614 5.3263 20.6394 5.13628 20.6394H1.69034C1.50142 20.6394 1.32844 20.5611 1.20258 20.4352C1.07773 20.3104 1 20.1381 1 19.9489V4.05137C1 3.86207 1.07764 3.68974 1.20249 3.56471C1.32817 3.43885 1.50096 3.36066 1.69034 3.36066ZM7.53373 8.49335H10.9798C11.1701 8.49335 11.3428 8.57108 11.4677 8.69593C11.5927 8.82096 11.6704 8.99403 11.6704 9.18396V19.9488C11.6704 20.1388 11.5925 20.3116 11.4675 20.4365C11.3425 20.5616 11.1696 20.6394 10.9797 20.6394H7.53373C7.34379 20.6394 7.17082 20.5618 7.04569 20.4367C6.92084 20.3117 6.84311 20.1391 6.84311 19.9488V9.18406C6.84311 8.99531 6.92066 8.82307 7.04569 8.69731L7.04633 8.69657L7.04707 8.69593L7.04807 8.69501C7.17366 8.57044 7.34553 8.49335 7.53373 8.49335ZM10.9564 9.20743H7.55719V19.9255H10.9565L10.9564 9.20743ZM5.1129 4.07474H1.71408V19.9255H5.11299L5.1129 4.07474ZM13.3772 12.7886H16.8232C17.0068 12.7886 17.1569 12.9386 17.1569 13.1223V19.949C17.1569 20.1324 17.0068 20.2828 16.8232 20.2828L13.3772 20.2826C13.194 20.2826 13.0435 20.1325 13.0435 19.949V13.1222C13.0436 12.9385 13.1936 12.7886 13.3772 12.7886Z" fill="#B13829"/>
</svg>
