<svg width="24" height="24" viewBox="0 0 24 24" fill="none" xmlns="http://www.w3.org/2000/svg">
<path fill-rule="evenodd" clip-rule="evenodd" d="M15.6648 4.89925C15.4742 5.056 15.1927 5.03106 15.0342 4.83869C14.8757 4.64632 14.9024 4.36668 15.0948 4.20815L17.779 1.99057C17.9696 1.83382 18.251 1.85876 18.4096 2.04934C18.5663 2.23993 18.5414 2.52136 18.349 2.67989L15.6648 4.89925ZM12.7863 14.092C13.1212 14.735 13.4917 15.3335 13.8925 15.8518C14.2736 16.3434 14.6833 16.7656 15.1144 17.0844L15.1589 17.088C15.1803 17.0897 15.2016 17.0897 15.2195 17.088H15.2266C15.2604 17.0862 15.2943 17.0808 15.3299 17.0701C15.3637 17.0595 15.3994 17.0434 15.4368 17.022C15.5276 16.9294 15.6024 16.8083 15.663 16.6658C15.7307 16.5091 15.7805 16.3238 15.8126 16.1172C15.9106 15.5063 15.8642 14.7243 15.7128 13.8604C15.5472 12.9164 15.2533 11.878 14.8828 10.8609C14.5194 9.86165 14.0813 8.88556 13.6146 8.04128C13.1711 7.23618 12.7026 6.5522 12.2502 6.08375C12.081 5.90741 11.9171 5.76669 11.7622 5.66517C11.6179 5.57076 11.4843 5.5102 11.3614 5.49061H11.3578C11.3293 5.48526 11.3062 5.48348 11.2884 5.4817C11.2812 5.4817 11.2884 5.47636 11.2848 5.47814C11.2848 5.47814 11.283 5.4817 11.2741 5.48883C11.2581 5.50308 11.2349 5.52445 11.2082 5.55117C11.1851 5.57254 11.1619 5.59926 11.1405 5.6242L11.1334 5.63845C10.9268 6.06593 10.8555 6.74279 10.9001 7.56748C10.9464 8.40464 11.1138 9.38964 11.3863 10.412C12.1611 10.2339 12.7668 10.3978 13.1835 10.7451C13.4276 10.9482 13.6039 11.2118 13.7126 11.5057C13.8194 11.7978 13.8586 12.1202 13.8266 12.4426C13.766 13.0767 13.4258 13.7037 12.7863 14.092ZM15.052 17.8129C15.0164 17.8182 14.9808 17.8182 14.9451 17.8129C14.9113 17.8076 14.8775 17.7986 14.8454 17.7826C14.7973 17.7737 14.7492 17.7648 14.7029 17.7541C14.3663 17.6847 14.0385 17.5902 13.6858 17.4905L13.6627 17.4834C12.4533 17.1396 10.941 16.7086 8.51861 17.0078C8.48654 17.1004 8.45983 17.2002 8.43845 17.2981C8.41708 17.4014 8.40461 17.5047 8.40283 17.5992C8.40283 17.674 8.40995 17.7434 8.42598 17.8004C8.43845 17.8432 8.45805 17.8788 8.48476 17.9037L8.52751 17.9429C8.72522 18.1228 8.82141 18.2119 8.87663 18.4149C8.92116 18.5788 8.90156 18.7302 8.86238 19.0294C8.85703 19.0704 8.85347 19.1114 8.84635 19.1524C8.82853 19.2966 8.85169 19.3803 8.89444 19.432C8.93897 19.4854 9.01556 19.5193 9.09393 19.5513L9.10284 19.5549C9.3522 19.6618 9.60157 19.7704 9.72982 20.1249C9.74407 20.1569 9.75297 20.1926 9.75653 20.2282C9.7601 20.2638 9.7601 20.2994 9.75297 20.3368V20.3386C9.69776 20.6254 9.5802 20.8445 9.43236 21.0315C9.28808 21.215 9.11709 21.361 8.94787 21.5071L8.90869 21.5409C8.84991 21.5908 8.79291 21.6407 8.73769 21.6941L8.70919 21.719C8.32267 22.0272 7.99315 22.1376 7.70282 22.1073C7.40892 22.0771 7.1649 21.9025 6.95828 21.6425C6.81579 21.4643 6.69823 21.2453 6.59314 21.0119C6.48983 20.7804 6.40077 20.5363 6.31527 20.2994C6.29212 20.2335 6.26718 20.1676 6.24224 20.1017C5.97863 19.391 5.78448 18.5272 5.58498 17.6348C5.52086 17.6526 5.45674 17.674 5.39261 17.6918C5.29287 17.7221 5.1949 17.7506 5.1005 17.7808C5.00431 17.8111 4.90991 17.8414 4.81729 17.8699L4.81194 17.8717C4.7977 17.8752 4.78701 17.8806 4.7781 17.8841L4.77276 17.8859C4.70507 17.9144 4.6552 17.934 4.5982 17.9394C4.54655 17.9447 4.49846 17.9394 4.44146 17.918C3.92669 18.0605 3.45111 18.0177 3.02719 17.8467C2.54627 17.6508 2.13303 17.2857 1.80529 16.8279L1.80173 16.8243C1.67883 16.648 1.56839 16.4592 1.47043 16.2597C1.37068 16.0584 1.28697 15.8482 1.2175 15.6345C1.14803 15.4208 1.0946 15.2017 1.05897 14.9826C1.02335 14.7653 1.00376 14.548 1.00019 14.3342C0.99485 13.7963 1.09994 13.2869 1.33328 12.8754C1.54346 12.5067 1.85695 12.2182 2.28265 12.0579C2.29868 12.0329 2.31115 12.0116 2.3254 11.9937C2.34856 11.9635 2.37349 11.9367 2.40734 11.9082L2.41446 11.9029C2.45008 11.8726 2.48393 11.853 2.52311 11.8334C2.55874 11.8174 2.5997 11.8014 2.65492 11.7818L2.70479 11.764C4.96869 10.9304 6.53436 9.86522 7.65829 8.82322C8.78222 7.78122 9.4662 6.76238 9.95959 6.0214L9.97028 6.00537C10.2464 5.59214 10.469 5.26262 10.6917 5.03997C10.7487 4.98297 10.7985 4.93666 10.852 4.89747C10.9072 4.8565 10.9642 4.82444 11.0301 4.79951C11.0996 4.77457 11.1672 4.76032 11.2403 4.75676C11.3115 4.75319 11.3881 4.76032 11.4772 4.77457C11.6873 4.80841 11.9011 4.89569 12.1166 5.03106C12.3357 5.16821 12.5566 5.35524 12.7757 5.58323C13.2637 6.08909 13.766 6.81938 14.238 7.67257C14.7296 8.5596 15.1892 9.57844 15.5668 10.6204C15.9551 11.6892 16.2615 12.7828 16.4342 13.7856C16.5928 14.7101 16.6391 15.5597 16.5286 16.2383C16.4823 16.5233 16.4093 16.7834 16.3078 17.0078C16.208 17.2287 16.078 17.4193 15.9177 17.5742C15.9106 17.5813 15.9016 17.5885 15.8945 17.5956C15.8838 17.6027 15.8731 17.6116 15.8625 17.6187C15.7574 17.6882 15.6558 17.7381 15.5543 17.7701C15.451 17.804 15.3477 17.82 15.2444 17.8254H15.2373C15.2016 17.8254 15.1678 17.8254 15.1357 17.8236C15.1108 17.8182 15.0805 17.8165 15.052 17.8129ZM19.4355 15.8661C19.1879 15.8767 18.9813 15.6844 18.9724 15.4368C18.9617 15.1892 19.1541 14.9826 19.4017 14.9737L22.5366 14.8561C22.7824 14.849 22.989 15.0414 22.9997 15.2854C23.0086 15.533 22.818 15.7396 22.5704 15.7503L19.4355 15.8661ZM19.3465 12.8202C19.1007 12.8523 18.8762 12.6795 18.8442 12.4373C18.8121 12.1915 18.9849 11.967 19.2271 11.935L22.1234 11.5502C22.3692 11.5182 22.5936 11.6909 22.6257 11.9332C22.6577 12.179 22.4849 12.4034 22.2427 12.4355L19.3465 12.8202ZM18.7373 10.0237C18.504 10.1039 18.2475 9.98099 18.1673 9.74766C18.0854 9.51432 18.2101 9.25783 18.4434 9.17768L21.4127 8.14637C21.646 8.06265 21.9025 8.18911 21.9826 8.42245C22.0646 8.65579 21.9399 8.91228 21.7066 8.99243L18.7373 10.0237ZM17.3373 7.33236C17.1235 7.45526 16.8492 7.38045 16.7281 7.16493C16.6052 6.95119 16.68 6.67866 16.8956 6.55576L19.7098 4.942C19.9236 4.8191 20.1979 4.89391 20.319 5.10943C20.4419 5.32318 20.3671 5.5957 20.1516 5.7186L17.3373 7.33236Z" fill="#B13829"/>
</svg>
