<svg width="24" height="24" viewBox="0 0 24 24" fill="none" xmlns="http://www.w3.org/2000/svg">
<path d="M18.0393 8.25565C18.0393 7.91909 18.3114 7.64698 18.648 7.64698C18.9845 7.64698 19.2567 7.91909 19.2567 8.25565V11.3903H22.3913C22.7279 11.3903 23 11.6624 23 11.999C23 12.3356 22.7279 12.6077 22.3913 12.6077H19.2567V15.7424C19.2567 16.0789 18.9845 16.351 18.648 16.351C18.3114 16.351 18.0393 16.0789 18.0393 15.7424V12.6059H14.9046C14.5681 12.6059 14.296 12.3338 14.296 11.9972C14.296 11.6607 14.5681 11.3885 14.9046 11.3885H18.0393V8.25565ZM2.93702 7.50913H7.42689L11.2508 3.66195C11.4871 3.42385 11.8702 3.42385 12.1083 3.66016C12.2283 3.77832 12.2873 3.93407 12.2873 4.08982H12.2891V19.9082C12.2891 20.2448 12.017 20.5169 11.6804 20.5169C11.5104 20.5169 11.3564 20.447 11.2454 20.3343L7.45911 17.1405H2.93702C2.40353 17.1405 1.92017 16.9221 1.56929 16.5712C1.21841 16.2203 1 15.737 1 15.2035V9.44615C1 8.91267 1.21841 8.42931 1.5675 8.07842C1.91838 7.72754 2.40353 7.50913 2.93702 7.50913Z" fill="#B13829"/>
</svg>
