<svg width="24" height="24" viewBox="0 0 24 24" fill="none" xmlns="http://www.w3.org/2000/svg">
<path d="M3.29368 7.42139H7.86492L11.6465 3.61113C11.7131 3.54453 11.792 3.49171 11.879 3.45566C11.9659 3.41962 12.0591 3.40107 12.1533 3.40107C12.2474 3.40107 12.3406 3.41962 12.4275 3.45566C12.5145 3.49171 12.5935 3.54453 12.66 3.61113C12.7276 3.67663 12.7814 3.75512 12.818 3.84188C12.8546 3.92864 12.8733 4.02189 12.8731 4.11606V19.8728C12.8751 20.0168 12.8336 20.1582 12.754 20.2783C12.6744 20.3984 12.5605 20.4917 12.427 20.546C12.2936 20.6004 12.1469 20.6132 12.0061 20.5829C11.8652 20.5525 11.7368 20.4804 11.6376 20.3759L7.90073 17.332H3.29368C2.68579 17.3306 2.10321 17.0885 1.67337 16.6586C1.24353 16.2288 1.00142 15.6462 1 15.0383L1 9.71507C1.00142 9.10718 1.24353 8.5246 1.67337 8.09476C2.10321 7.66492 2.68579 7.42281 3.29368 7.42139ZM21.3101 8.86994C21.4014 8.77693 21.5104 8.70305 21.6306 8.65262C21.7508 8.60218 21.8798 8.57621 22.0102 8.57621C22.1405 8.57621 22.2696 8.60218 22.3898 8.65262C22.51 8.70305 22.6189 8.77693 22.7103 8.86994C22.8958 9.05821 22.9999 9.31195 22.9999 9.5763C22.9999 9.84066 22.8958 10.0944 22.7103 10.2827L21.0236 11.9944L22.7156 13.7115C22.8998 13.8998 23.002 14.1532 23 14.4165C22.998 14.6799 22.8919 14.9317 22.7049 15.1171C22.6135 15.2091 22.5049 15.2821 22.3852 15.3319C22.2655 15.3817 22.1371 15.4074 22.0075 15.4074C21.8778 15.4074 21.7495 15.3817 21.6298 15.3319C21.5101 15.2821 21.4014 15.2091 21.3101 15.1171L19.6216 13.4089L17.9385 15.1189C17.8469 15.2115 17.7379 15.285 17.6177 15.3351C17.4975 15.3853 17.3686 15.4111 17.2384 15.4111C17.1082 15.4111 16.9792 15.3853 16.8591 15.3351C16.7389 15.285 16.6299 15.2115 16.5383 15.1189C16.3526 14.9303 16.2485 14.6763 16.2485 14.4116C16.2485 14.147 16.3526 13.893 16.5383 13.7044L18.2303 11.9944L16.5383 10.2755C16.3543 10.0876 16.2521 9.83443 16.2541 9.5714C16.2561 9.30837 16.3622 9.05683 16.549 8.87173C16.6402 8.77931 16.7487 8.70593 16.8685 8.65585C16.9882 8.60576 17.1167 8.57997 17.2464 8.57997C17.3762 8.57997 17.5047 8.60576 17.6244 8.65585C17.7442 8.70593 17.8527 8.77931 17.9439 8.87173L19.627 10.5763L21.3101 8.86815V8.86994Z" fill="#B13829"/>
</svg>
